<?xml version="1.0" standalone="no"?>
<!DOCTYPE svg PUBLIC "-//W3C//DTD SVG 20010904//EN"
 "http://www.w3.org/TR/2001/REC-SVG-20010904/DTD/svg10.dtd">
<svg version="1.0" xmlns="http://www.w3.org/2000/svg"
 width="512.000000pt" height="512.000000pt" viewBox="0 0 512.000000 512.000000"
 preserveAspectRatio="xMidYMid meet">
<metadata>
Created by potrace 1.14, written by Peter Selinger 2001-2017
</metadata>
<g transform="translate(0.000000,512.000000) scale(0.100000,-0.100000)"
fill="#000000" stroke="none">
<path d="M1010 4906 c0 -3 46 -19 103 -36 224 -70 541 -214 735 -334 367 -227
702 -580 818 -861 23 -57 28 -85 29 -150 0 -107 -19 -141 -156 -281 -60 -60
-109 -114 -109 -120 0 -12 682 -694 695 -694 5 0 90 80 187 177 l178 178 126
-125 c148 -146 167 -180 166 -285 0 -38 -5 -83 -11 -98 -6 -16 -11 -52 -11
-81 l0 -52 213 -211 c184 -183 219 -213 257 -223 64 -17 132 -7 183 29 50 35
634 621 667 669 14 21 24 54 27 92 9 92 -10 118 -242 350 l-205 205 -53 -1
c-28 -1 -86 -7 -128 -14 -67 -12 -81 -12 -130 4 -47 15 -71 34 -186 149 l-133
131 29 31 c16 16 36 44 45 62 22 44 20 127 -4 177 -13 27 -183 204 -502 522
-463 462 -486 483 -563 522 -275 137 -786 221 -1595 262 -201 10 -430 13 -430
6z"/>
<path d="M1093 1798 c-1148 -1149 -1093 -1090 -1093 -1188 1 -69 32 -109 276
-351 184 -182 248 -239 278 -249 45 -14 122 -8 163 14 15 8 507 494 1093 1080
l1065 1066 -350 350 c-192 192 -352 350 -355 350 -3 0 -487 -483 -1077 -1072z"/>
</g>
</svg>
