<?xml version="1.0" standalone="no"?>
<!DOCTYPE svg PUBLIC "-//W3C//DTD SVG 20010904//EN"
 "http://www.w3.org/TR/2001/REC-SVG-20010904/DTD/svg10.dtd">
<svg version="1.0" xmlns="http://www.w3.org/2000/svg"
 width="364.000000pt" height="364.000000pt" viewBox="0 0 364.000000 364.000000"
 preserveAspectRatio="xMidYMid meet">
<metadata>
Created by potrace 1.14, written by Peter Selinger 2001-2017
</metadata>
<g transform="translate(0.000000,364.000000) scale(0.100000,-0.100000)"
fill="#000000" stroke="none">
<path d="M2483 2599 c-348 -303 -529 -455 -531 -445 -3 15 43 507 54 576 5 31
4 33 -9 20 -12 -13 -1332 -2185 -1366 -2248 -6 -12 -10 -22 -7 -22 3 0 251
263 551 585 301 322 548 585 549 585 1 0 1 -15 -1 -32 -29 -289 -51 -533 -48
-536 1 -2 59 79 127 180 69 101 363 534 655 963 588 866 567 835 560 835 -3 0
-244 -207 -534 -461z"/>
</g>
</svg>
